<?xml version="1.0" standalone="no"?>
<!DOCTYPE svg PUBLIC "-//W3C//DTD SVG 20010904//EN"
 "http://www.w3.org/TR/2001/REC-SVG-20010904/DTD/svg10.dtd">
<svg version="1.0" xmlns="http://www.w3.org/2000/svg"
 width="700.000000pt" height="700.000000pt" viewBox="0 0 700.000000 700.000000"
 preserveAspectRatio="xMidYMid meet">
<metadata>
Created by potrace 1.11, written by Peter Selinger 2001-2013
</metadata>
<g transform="translate(0.000000,700.000000) scale(0.100000,-0.100000)"
fill="#000000" stroke="none">
<path d="M1675 6523 c-27 -4 -142 -25 -205 -38 -61 -12 -223 -71 -315 -115
-154 -73 -299 -175 -429 -303 -168 -165 -265 -302 -352 -498 -95 -215 -137
-418 -138 -664 -1 -205 9 -287 60 -492 64 -263 164 -494 338 -783 69 -116 236
-364 247 -368 5 -2 9 -8 9 -13 0 -12 198 -273 313 -414 27 -33 66 -80 86 -105
39 -48 200 -237 243 -285 14 -16 36 -41 47 -54 282 -326 848 -910 1316 -1356
233 -223 232 -222 425 -399 70 -64 119 -85 190 -82 69 3 111 23 176 84 598
552 1275 1232 1649 1657 49 55 91 102 95 105 3 3 61 70 129 150 160 188 151
178 232 278 39 48 78 96 87 107 9 11 72 94 139 185 68 91 128 170 133 177 6 7
10 16 10 22 0 5 3 11 8 13 7 3 113 160 169 251 13 20 34 54 47 75 52 81 155
284 202 394 46 109 113 314 128 388 42 212 49 275 50 455 0 150 -7 223 -34
350 -80 367 -276 691 -555 914 -38 31 -72 58 -75 61 -6 6 -85 58 -125 83 -26
15 -179 90 -240 117 -68 31 -242 76 -371 97 -62 10 -395 10 -454 -1 -246 -43
-425 -108 -610 -220 -178 -109 -367 -276 -505 -446 -82 -101 -210 -294 -255
-385 -18 -36 -35 -65 -39 -65 -3 0 -26 37 -51 82 -201 367 -452 634 -785 835
-109 66 -330 151 -460 177 -44 8 -93 18 -110 22 -34 8 -374 13 -420 7z"/>
</g>
</svg>
